<svg width="310" height="294" viewBox="0 0 310 294" fill="none" xmlns="http://www.w3.org/2000/svg">
<path d="M157.226 275.965L155 275.566L152.774 275.965C116.803 282.404 82.8443 278.823 58.0371 261.06C33.3607 243.392 15 209.715 15 150.463C15 89.8684 30.255 65.2508 50.3467 56.2595C60.856 51.5565 74.4464 50.1877 91.7394 51.9737C109.012 53.7575 128.942 58.5743 151.41 65.2776L155.356 66.4545L159.215 65.0723C196.776 51.6247 230.538 46.4735 254.253 56.379C276.491 65.6673 295 90.7682 295 150.463C295 209.715 276.64 243.392 251.963 261.06C227.155 278.823 193.197 282.404 157.226 275.965Z" fill="white" fill-opacity="0.8" stroke="#6DB89D" stroke-width="30"/>
<path d="M155.001 62.4123C155.001 28.5464 139.865 15 109.595 15Z" fill="white" fill-opacity="0.8"/>
<path d="M155.001 62.4123C155.001 28.5464 139.865 15 109.595 15" stroke="#6DB89D" stroke-width="30" stroke-linecap="round" stroke-linejoin="round"/>
</svg>
