<svg width="227" height="260" viewBox="0 0 227 260" fill="none" xmlns="http://www.w3.org/2000/svg">
<mask id="path-1-inside-1_210_61" fill="white">
<path d="M95.6522 73.3228H66.9565V6.36624H47.8261V73.3228H19.1304V6.36624H0V80.4967C0 107.701 20.7177 130.351 47.8261 134.728V259.845H66.9565V134.728C94.0649 130.351 114.783 107.701 114.783 80.4967V6.36624H95.6522V73.3228ZM57.3913 116.366C40.7652 116.366 26.5889 106.369 21.3245 92.4532H93.4581C88.1937 106.369 74.0174 116.366 57.3913 116.366Z"/>
</mask>
<path d="M95.6522 73.3228H66.9565V6.36624H47.8261V73.3228H19.1304V6.36624H0V80.4967C0 107.701 20.7177 130.351 47.8261 134.728V259.845H66.9565V134.728C94.0649 130.351 114.783 107.701 114.783 80.4967V6.36624H95.6522V73.3228ZM57.3913 116.366C40.7652 116.366 26.5889 106.369 21.3245 92.4532H93.4581C88.1937 106.369 74.0174 116.366 57.3913 116.366Z" fill="white"/>
<path d="M95.6522 73.3228V103.323H125.652V73.3228H95.6522ZM66.9565 73.3228H36.9565V103.323H66.9565V73.3228ZM66.9565 6.36624H96.9565V-23.6338H66.9565V6.36624ZM47.8261 6.36624V-23.6338H17.8261V6.36624H47.8261ZM47.8261 73.3228V103.323H77.8261V73.3228H47.8261ZM19.1304 73.3228H-10.8696V103.323H19.1304V73.3228ZM19.1304 6.36624H49.1304V-23.6338H19.1304V6.36624ZM0 6.36624V-23.6338H-30V6.36624H0ZM47.8261 134.728H77.8261V109.184L52.6083 105.112L47.8261 134.728ZM47.8261 259.845H17.8261V289.845H47.8261V259.845ZM66.9565 259.845V289.845H96.9565V259.845H66.9565ZM66.9565 134.728L62.1743 105.112L36.9565 109.184V134.728H66.9565ZM114.783 6.36624H144.783V-23.6338H114.783V6.36624ZM95.6522 6.36624V-23.6338H65.6522V6.36624H95.6522ZM21.3245 92.4532V62.4532H-22.0993L-6.73489 103.068L21.3245 92.4532ZM93.4581 92.4532L121.517 103.068L136.882 62.4532L93.4581 62.4532V92.4532ZM95.6522 43.3228H66.9565V103.323H95.6522V43.3228ZM96.9565 73.3228V6.36624H36.9565V73.3228H96.9565ZM66.9565 -23.6338H47.8261V36.3662H66.9565V-23.6338ZM17.8261 6.36624V73.3228H77.8261V6.36624H17.8261ZM47.8261 43.3228H19.1304V103.323H47.8261V43.3228ZM49.1304 73.3228V6.36624H-10.8696V73.3228H49.1304ZM19.1304 -23.6338H0V36.3662H19.1304V-23.6338ZM-30 6.36624V80.4967H30V6.36624H-30ZM-30 80.4967C-30 123.603 2.59774 157.814 43.0438 164.345L52.6083 105.112C38.8376 102.888 30 91.798 30 80.4967H-30ZM17.8261 134.728V259.845H77.8261V134.728H17.8261ZM47.8261 289.845H66.9565V229.845H47.8261V289.845ZM96.9565 259.845V134.728H36.9565V259.845H96.9565ZM71.7388 164.345C112.185 157.814 144.783 123.603 144.783 80.4967H84.7826C84.7826 91.798 75.945 102.888 62.1743 105.112L71.7388 164.345ZM144.783 80.4967V6.36624H84.7826V80.4967H144.783ZM114.783 -23.6338H95.6522V36.3662H114.783V-23.6338ZM65.6522 6.36624V73.3228H125.652V6.36624H65.6522ZM57.3913 86.3662C52.7059 86.3662 50.0491 83.5972 49.3838 81.8384L-6.73489 103.068C3.12869 129.142 28.8245 146.366 57.3913 146.366V86.3662ZM21.3245 122.453H93.4581V62.4532H21.3245V122.453ZM65.3988 81.8384C64.7335 83.5972 62.0768 86.3662 57.3913 86.3662V146.366C85.9581 146.366 111.654 129.142 121.517 103.068L65.3988 81.8384Z" fill="#6DB89D" mask="url(#path-1-inside-1_210_61)"/>
<mask id="path-3-inside-2_210_61" fill="white">
<path d="M215.067 1.69543C195.498 4.70584 177.653 14.6216 164.762 29.6485C151.87 44.6753 144.783 63.8206 144.783 83.6197V183.323H206.957V259.845H226.087V0L215.067 1.69543ZM206.957 164.192H163.913V83.6197C163.848 70.3188 167.97 57.3345 175.695 46.5069C183.421 35.6793 194.358 27.5575 206.957 23.2925V164.192Z"/>
</mask>
<path d="M215.067 1.69543C195.498 4.70584 177.653 14.6216 164.762 29.6485C151.87 44.6753 144.783 63.8206 144.783 83.6197V183.323H206.957V259.845H226.087V0L215.067 1.69543ZM206.957 164.192H163.913V83.6197C163.848 70.3188 167.97 57.3345 175.695 46.5069C183.421 35.6793 194.358 27.5575 206.957 23.2925V164.192Z" fill="white"/>
<path d="M215.067 1.69543L219.629 31.3466L219.629 31.3465L215.067 1.69543ZM144.783 83.6197L174.783 83.6197L174.783 83.6195L144.783 83.6197ZM144.783 183.323H114.783V213.323H144.783V183.323ZM206.957 183.323H236.957V153.323H206.957V183.323ZM206.957 259.845H176.957V289.845H206.957V259.845ZM226.087 259.845V289.845H256.087V259.845H226.087ZM226.087 0H256.087V-34.9686L221.525 -29.6511L226.087 0ZM206.957 164.192V194.192H236.957V164.192H206.957ZM163.913 164.192H133.913V194.192H163.913V164.192ZM163.913 83.6197H193.913V83.5459L193.913 83.4721L163.913 83.6197ZM206.957 23.2925H236.957V-18.5358L197.337 -5.1234L206.957 23.2925ZM210.506 -27.9558C183.854 -23.8558 159.55 -10.3511 141.993 10.1145L187.53 49.1824C195.756 39.5944 207.143 33.2675 219.629 31.3466L210.506 -27.9558ZM141.993 10.1145C124.435 30.5802 114.783 56.6547 114.783 83.62L174.783 83.6195C174.783 70.9864 179.305 58.7705 187.53 49.1824L141.993 10.1145ZM114.783 83.6197V183.323H174.783V83.6197H114.783ZM144.783 213.323H206.957V153.323H144.783V213.323ZM176.957 183.323V259.845H236.957V183.323H176.957ZM206.957 289.845H226.087V229.845H206.957V289.845ZM256.087 259.845V0H196.087V259.845H256.087ZM221.525 -29.6511L210.505 -27.9557L219.629 31.3465L230.649 29.6511L221.525 -29.6511ZM206.957 134.192H163.913V194.192H206.957V134.192ZM193.913 164.192V83.6197H133.913V164.192H193.913ZM193.913 83.4721C193.878 76.4689 196.049 69.6323 200.116 63.9314L151.274 29.0825C139.891 45.0367 133.817 64.1687 133.914 83.7673L193.913 83.4721ZM200.116 63.9314C204.184 58.2304 209.943 53.9541 216.576 51.7084L197.337 -5.1234C178.773 1.16104 162.658 13.1283 151.274 29.0825L200.116 63.9314ZM176.957 23.2925V164.192H236.957V23.2925H176.957Z" fill="#6DB89D" mask="url(#path-3-inside-2_210_61)"/>
</svg>
