<svg width="310" height="286" viewBox="0 0 310 286" fill="none" xmlns="http://www.w3.org/2000/svg">
<path d="M263.889 270.078H46.1111C28.9289 270.078 15 256.15 15 238.967V98.9671C15 81.7849 28.9289 67.856 46.1111 67.856H263.889C281.072 67.856 295 81.7849 295 98.9671V238.967C295 256.15 281.072 270.078 263.889 270.078Z" stroke="#6DB89D" stroke-width="30"/>
<path d="M225 176.745C220.706 176.745 217.223 173.262 217.223 168.967C217.223 164.672 220.706 161.189 225 161.189C229.295 161.189 232.778 164.672 232.778 168.967C232.778 173.262 229.295 176.745 225 176.745Z" fill="#C6C6C6" stroke="#6DB89D" stroke-width="30" stroke-linecap="round" stroke-linejoin="round"/>
<path d="M248.333 67.8558V46.1281C248.333 25.6871 228.957 10.8006 209.206 16.0674L38.0949 61.6972C24.476 65.3289 15 77.6629 15 91.7578V98.9669" stroke="#6DB89D" stroke-width="30"/>
</svg>
